<mxfile host="app.diagrams.net" modified="2021-08-03T06:16:15.157Z" agent="5.0 (Windows)" etag="6F8meNXl0La2Z8GdGZtG" version="14.6.5" type="github">
  <diagram id="iU1haSfVSD4Kp0jXieJj" name="Page-1">
    <mxGraphModel dx="1240" dy="629" grid="1" gridSize="10" guides="1" tooltips="1" connect="1" arrows="1" fold="1" page="1" pageScale="1" pageWidth="827" pageHeight="1169" math="0" shadow="0">
      <root>
        <mxCell id="0" />
        <mxCell id="1" parent="0" />
        <mxCell id="DHhAO1wtgyZma5iz6R2y-1" style="edgeStyle=orthogonalEdgeStyle;rounded=0;orthogonalLoop=1;jettySize=auto;html=1;entryX=0.5;entryY=0;entryDx=0;entryDy=0;" edge="1" parent="1" source="vLVgJYE80W-G5NcFMN8--1" target="vLVgJYE80W-G5NcFMN8--10">
          <mxGeometry relative="1" as="geometry" />
        </mxCell>
        <mxCell id="vLVgJYE80W-G5NcFMN8--1" value="Fused Odom" style="rounded=0;whiteSpace=wrap;html=1;fillColor=#dae8fc;strokeColor=#6c8ebf;" parent="1" vertex="1">
          <mxGeometry x="160" y="160" width="200" height="60" as="geometry" />
        </mxCell>
        <mxCell id="vLVgJYE80W-G5NcFMN8--27" style="edgeStyle=orthogonalEdgeStyle;rounded=0;orthogonalLoop=1;jettySize=auto;html=1;entryX=0.175;entryY=0.983;entryDx=0;entryDy=0;entryPerimeter=0;dashed=1;" parent="1" source="vLVgJYE80W-G5NcFMN8--3" target="vLVgJYE80W-G5NcFMN8--1" edge="1">
          <mxGeometry relative="1" as="geometry" />
        </mxCell>
        <mxCell id="vLVgJYE80W-G5NcFMN8--30" style="edgeStyle=orthogonalEdgeStyle;rounded=0;orthogonalLoop=1;jettySize=auto;html=1;exitX=0.5;exitY=1;exitDx=0;exitDy=0;entryX=0;entryY=0.75;entryDx=0;entryDy=0;dashed=1;" parent="1" source="vLVgJYE80W-G5NcFMN8--3" target="vLVgJYE80W-G5NcFMN8--23" edge="1">
          <mxGeometry relative="1" as="geometry" />
        </mxCell>
        <mxCell id="vLVgJYE80W-G5NcFMN8--3" value="IMU" style="rounded=0;whiteSpace=wrap;html=1;" parent="1" vertex="1">
          <mxGeometry x="170" y="360" width="50" height="30" as="geometry" />
        </mxCell>
        <mxCell id="vLVgJYE80W-G5NcFMN8--26" style="edgeStyle=orthogonalEdgeStyle;rounded=0;orthogonalLoop=1;jettySize=auto;html=1;entryX=0.5;entryY=1;entryDx=0;entryDy=0;dashed=1;" parent="1" source="vLVgJYE80W-G5NcFMN8--4" target="vLVgJYE80W-G5NcFMN8--1" edge="1">
          <mxGeometry relative="1" as="geometry" />
        </mxCell>
        <mxCell id="vLVgJYE80W-G5NcFMN8--29" style="edgeStyle=orthogonalEdgeStyle;rounded=0;orthogonalLoop=1;jettySize=auto;html=1;exitX=0.5;exitY=1;exitDx=0;exitDy=0;entryX=0;entryY=0.5;entryDx=0;entryDy=0;dashed=1;" parent="1" source="vLVgJYE80W-G5NcFMN8--4" target="vLVgJYE80W-G5NcFMN8--23" edge="1">
          <mxGeometry relative="1" as="geometry" />
        </mxCell>
        <mxCell id="vLVgJYE80W-G5NcFMN8--4" value="vehicle data" style="rounded=0;whiteSpace=wrap;html=1;" parent="1" vertex="1">
          <mxGeometry x="235" y="360" width="50" height="30" as="geometry" />
        </mxCell>
        <mxCell id="vLVgJYE80W-G5NcFMN8--25" style="edgeStyle=orthogonalEdgeStyle;rounded=0;orthogonalLoop=1;jettySize=auto;html=1;entryX=0.825;entryY=0.983;entryDx=0;entryDy=0;entryPerimeter=0;dashed=1;" parent="1" source="vLVgJYE80W-G5NcFMN8--5" target="vLVgJYE80W-G5NcFMN8--1" edge="1">
          <mxGeometry relative="1" as="geometry" />
        </mxCell>
        <mxCell id="vLVgJYE80W-G5NcFMN8--28" style="edgeStyle=orthogonalEdgeStyle;rounded=0;orthogonalLoop=1;jettySize=auto;html=1;entryX=0;entryY=0.25;entryDx=0;entryDy=0;dashed=1;" parent="1" source="vLVgJYE80W-G5NcFMN8--5" target="vLVgJYE80W-G5NcFMN8--23" edge="1">
          <mxGeometry relative="1" as="geometry">
            <Array as="points">
              <mxPoint x="325" y="525" />
            </Array>
          </mxGeometry>
        </mxCell>
        <mxCell id="vLVgJYE80W-G5NcFMN8--5" value="&lt;div&gt;RTK&lt;/div&gt;" style="rounded=0;whiteSpace=wrap;html=1;" parent="1" vertex="1">
          <mxGeometry x="300" y="360" width="50" height="30" as="geometry" />
        </mxCell>
        <mxCell id="vLVgJYE80W-G5NcFMN8--78" style="edgeStyle=orthogonalEdgeStyle;rounded=0;orthogonalLoop=1;jettySize=auto;html=1;entryX=0.5;entryY=0;entryDx=0;entryDy=0;" parent="1" source="vLVgJYE80W-G5NcFMN8--10" target="vLVgJYE80W-G5NcFMN8--67" edge="1">
          <mxGeometry relative="1" as="geometry" />
        </mxCell>
        <mxCell id="vLVgJYE80W-G5NcFMN8--10" value="Road Loc" style="rounded=0;whiteSpace=wrap;html=1;fillColor=#dae8fc;strokeColor=#6c8ebf;" parent="1" vertex="1">
          <mxGeometry x="495" y="262.5" width="120" height="60" as="geometry" />
        </mxCell>
        <mxCell id="vLVgJYE80W-G5NcFMN8--24" style="edgeStyle=orthogonalEdgeStyle;rounded=0;orthogonalLoop=1;jettySize=auto;html=1;exitX=0.5;exitY=1;exitDx=0;exitDy=0;" parent="1" source="vLVgJYE80W-G5NcFMN8--15" target="vLVgJYE80W-G5NcFMN8--23" edge="1">
          <mxGeometry relative="1" as="geometry" />
        </mxCell>
        <mxCell id="vLVgJYE80W-G5NcFMN8--15" value="Lane Loc" style="rounded=0;whiteSpace=wrap;html=1;fillColor=#dae8fc;strokeColor=#6c8ebf;" parent="1" vertex="1">
          <mxGeometry x="360" y="400" width="120" height="60" as="geometry" />
        </mxCell>
        <mxCell id="vLVgJYE80W-G5NcFMN8--58" style="edgeStyle=orthogonalEdgeStyle;rounded=0;orthogonalLoop=1;jettySize=auto;html=1;entryX=0.054;entryY=-0.035;entryDx=0;entryDy=0;entryPerimeter=0;dashed=1;" parent="1" source="vLVgJYE80W-G5NcFMN8--16" target="vLVgJYE80W-G5NcFMN8--31" edge="1">
          <mxGeometry relative="1" as="geometry" />
        </mxCell>
        <mxCell id="vLVgJYE80W-G5NcFMN8--59" style="edgeStyle=orthogonalEdgeStyle;rounded=0;orthogonalLoop=1;jettySize=auto;html=1;exitX=0;exitY=0.5;exitDx=0;exitDy=0;entryX=1;entryY=0.5;entryDx=0;entryDy=0;dashed=1;" parent="1" source="vLVgJYE80W-G5NcFMN8--16" target="vLVgJYE80W-G5NcFMN8--15" edge="1">
          <mxGeometry relative="1" as="geometry" />
        </mxCell>
        <mxCell id="vLVgJYE80W-G5NcFMN8--60" style="edgeStyle=orthogonalEdgeStyle;rounded=0;orthogonalLoop=1;jettySize=auto;html=1;exitX=0.5;exitY=1;exitDx=0;exitDy=0;entryX=1;entryY=0.25;entryDx=0;entryDy=0;dashed=1;" parent="1" source="vLVgJYE80W-G5NcFMN8--16" target="vLVgJYE80W-G5NcFMN8--23" edge="1">
          <mxGeometry relative="1" as="geometry" />
        </mxCell>
        <mxCell id="vLVgJYE80W-G5NcFMN8--16" value="Vision data" style="rounded=0;whiteSpace=wrap;html=1;" parent="1" vertex="1">
          <mxGeometry x="530" y="415" width="50" height="30" as="geometry" />
        </mxCell>
        <mxCell id="DHhAO1wtgyZma5iz6R2y-2" style="edgeStyle=orthogonalEdgeStyle;rounded=0;orthogonalLoop=1;jettySize=auto;html=1;exitX=0.5;exitY=1;exitDx=0;exitDy=0;" edge="1" parent="1" source="vLVgJYE80W-G5NcFMN8--23" target="vLVgJYE80W-G5NcFMN8--65">
          <mxGeometry relative="1" as="geometry" />
        </mxCell>
        <mxCell id="vLVgJYE80W-G5NcFMN8--23" value="Multiframe Map-match" style="rounded=0;whiteSpace=wrap;html=1;fillColor=#dae8fc;strokeColor=#6c8ebf;" parent="1" vertex="1">
          <mxGeometry x="360" y="510" width="120" height="60" as="geometry" />
        </mxCell>
        <mxCell id="DHhAO1wtgyZma5iz6R2y-3" style="edgeStyle=orthogonalEdgeStyle;rounded=0;orthogonalLoop=1;jettySize=auto;html=1;entryX=1;entryY=0.5;entryDx=0;entryDy=0;" edge="1" parent="1" source="vLVgJYE80W-G5NcFMN8--31" target="vLVgJYE80W-G5NcFMN8--65">
          <mxGeometry relative="1" as="geometry">
            <Array as="points">
              <mxPoint x="790" y="665" />
            </Array>
          </mxGeometry>
        </mxCell>
        <mxCell id="vLVgJYE80W-G5NcFMN8--31" value="&lt;div&gt;Visual-Initial Odom&lt;/div&gt;" style="rounded=0;whiteSpace=wrap;html=1;fillColor=#dae8fc;strokeColor=#6c8ebf;" parent="1" vertex="1">
          <mxGeometry x="680" y="510" width="220" height="60" as="geometry" />
        </mxCell>
        <mxCell id="vLVgJYE80W-G5NcFMN8--32" value="Multiframe Map-match" style="rounded=0;whiteSpace=wrap;html=1;" parent="1" vertex="1">
          <mxGeometry x="670" y="232.5" width="120" height="60" as="geometry" />
        </mxCell>
        <mxCell id="vLVgJYE80W-G5NcFMN8--44" style="edgeStyle=orthogonalEdgeStyle;rounded=0;orthogonalLoop=1;jettySize=auto;html=1;exitX=0.5;exitY=1;exitDx=0;exitDy=0;entryX=0.25;entryY=0;entryDx=0;entryDy=0;dashed=1;" parent="1" source="vLVgJYE80W-G5NcFMN8--33" target="vLVgJYE80W-G5NcFMN8--31" edge="1">
          <mxGeometry relative="1" as="geometry" />
        </mxCell>
        <mxCell id="vLVgJYE80W-G5NcFMN8--33" value="IMU" style="rounded=0;whiteSpace=wrap;html=1;" parent="1" vertex="1">
          <mxGeometry x="710" y="430" width="50" height="30" as="geometry" />
        </mxCell>
        <mxCell id="vLVgJYE80W-G5NcFMN8--43" style="edgeStyle=orthogonalEdgeStyle;rounded=0;orthogonalLoop=1;jettySize=auto;html=1;entryX=0.555;entryY=0;entryDx=0;entryDy=0;entryPerimeter=0;dashed=1;" parent="1" source="vLVgJYE80W-G5NcFMN8--34" target="vLVgJYE80W-G5NcFMN8--31" edge="1">
          <mxGeometry relative="1" as="geometry" />
        </mxCell>
        <mxCell id="vLVgJYE80W-G5NcFMN8--34" value="vehicle data" style="rounded=0;whiteSpace=wrap;html=1;" parent="1" vertex="1">
          <mxGeometry x="777" y="430" width="50" height="30" as="geometry" />
        </mxCell>
        <mxCell id="vLVgJYE80W-G5NcFMN8--42" style="edgeStyle=orthogonalEdgeStyle;rounded=0;orthogonalLoop=1;jettySize=auto;html=1;entryX=0.839;entryY=0.004;entryDx=0;entryDy=0;entryPerimeter=0;dashed=1;" parent="1" source="vLVgJYE80W-G5NcFMN8--35" target="vLVgJYE80W-G5NcFMN8--31" edge="1">
          <mxGeometry relative="1" as="geometry" />
        </mxCell>
        <mxCell id="vLVgJYE80W-G5NcFMN8--35" value="&lt;div&gt;RTK&lt;/div&gt;" style="rounded=0;whiteSpace=wrap;html=1;" parent="1" vertex="1">
          <mxGeometry x="840" y="430" width="50" height="30" as="geometry" />
        </mxCell>
        <mxCell id="vLVgJYE80W-G5NcFMN8--87" style="edgeStyle=orthogonalEdgeStyle;rounded=0;orthogonalLoop=1;jettySize=auto;html=1;exitX=0.5;exitY=1;exitDx=0;exitDy=0;entryX=0.5;entryY=0;entryDx=0;entryDy=0;" parent="1" source="vLVgJYE80W-G5NcFMN8--46" target="vLVgJYE80W-G5NcFMN8--32" edge="1">
          <mxGeometry relative="1" as="geometry" />
        </mxCell>
        <mxCell id="vLVgJYE80W-G5NcFMN8--88" style="edgeStyle=orthogonalEdgeStyle;rounded=0;orthogonalLoop=1;jettySize=auto;html=1;entryX=0.413;entryY=0.008;entryDx=0;entryDy=0;entryPerimeter=0;" parent="1" source="vLVgJYE80W-G5NcFMN8--46" target="vLVgJYE80W-G5NcFMN8--84" edge="1">
          <mxGeometry relative="1" as="geometry" />
        </mxCell>
        <mxCell id="vLVgJYE80W-G5NcFMN8--89" style="edgeStyle=orthogonalEdgeStyle;rounded=0;orthogonalLoop=1;jettySize=auto;html=1;" parent="1" source="vLVgJYE80W-G5NcFMN8--46" target="vLVgJYE80W-G5NcFMN8--86" edge="1">
          <mxGeometry relative="1" as="geometry">
            <Array as="points">
              <mxPoint x="880" y="202.5" />
              <mxPoint x="1050" y="202.5" />
            </Array>
          </mxGeometry>
        </mxCell>
        <mxCell id="vLVgJYE80W-G5NcFMN8--46" value="Lidar" style="rounded=0;whiteSpace=wrap;html=1;" parent="1" vertex="1">
          <mxGeometry x="855" y="140" width="50" height="30" as="geometry" />
        </mxCell>
        <mxCell id="vLVgJYE80W-G5NcFMN8--62" style="edgeStyle=orthogonalEdgeStyle;rounded=0;orthogonalLoop=1;jettySize=auto;html=1;entryX=1;entryY=0.75;entryDx=0;entryDy=0;dashed=1;" parent="1" source="vLVgJYE80W-G5NcFMN8--61" target="vLVgJYE80W-G5NcFMN8--23" edge="1">
          <mxGeometry relative="1" as="geometry" />
        </mxCell>
        <mxCell id="vLVgJYE80W-G5NcFMN8--61" value="HD data" style="rounded=0;whiteSpace=wrap;html=1;" parent="1" vertex="1">
          <mxGeometry x="530" y="540" width="50" height="30" as="geometry" />
        </mxCell>
        <mxCell id="DHhAO1wtgyZma5iz6R2y-4" style="edgeStyle=orthogonalEdgeStyle;rounded=0;orthogonalLoop=1;jettySize=auto;html=1;entryX=0;entryY=0.5;entryDx=0;entryDy=0;" edge="1" parent="1" source="vLVgJYE80W-G5NcFMN8--65" target="vLVgJYE80W-G5NcFMN8--1">
          <mxGeometry relative="1" as="geometry">
            <Array as="points">
              <mxPoint x="110" y="665" />
              <mxPoint x="110" y="190" />
            </Array>
          </mxGeometry>
        </mxCell>
        <mxCell id="vLVgJYE80W-G5NcFMN8--65" value="State Machine" style="rounded=0;whiteSpace=wrap;html=1;fillColor=#dae8fc;strokeColor=#6c8ebf;" parent="1" vertex="1">
          <mxGeometry x="350" y="630" width="140" height="70" as="geometry" />
        </mxCell>
        <mxCell id="vLVgJYE80W-G5NcFMN8--71" style="edgeStyle=orthogonalEdgeStyle;rounded=0;orthogonalLoop=1;jettySize=auto;html=1;exitX=0.5;exitY=1;exitDx=0;exitDy=0;entryX=0.423;entryY=0.033;entryDx=0;entryDy=0;entryPerimeter=0;" parent="1" source="vLVgJYE80W-G5NcFMN8--67" target="vLVgJYE80W-G5NcFMN8--15" edge="1">
          <mxGeometry relative="1" as="geometry">
            <Array as="points">
              <mxPoint x="411" y="365" />
            </Array>
          </mxGeometry>
        </mxCell>
        <mxCell id="vLVgJYE80W-G5NcFMN8--73" style="edgeStyle=orthogonalEdgeStyle;rounded=0;orthogonalLoop=1;jettySize=auto;html=1;exitX=0.5;exitY=1;exitDx=0;exitDy=0;" parent="1" source="vLVgJYE80W-G5NcFMN8--67" edge="1">
          <mxGeometry relative="1" as="geometry">
            <mxPoint x="420" y="490" as="targetPoint" />
            <Array as="points">
              <mxPoint x="414" y="340" />
              <mxPoint x="510" y="340" />
              <mxPoint x="510" y="490" />
            </Array>
          </mxGeometry>
        </mxCell>
        <mxCell id="vLVgJYE80W-G5NcFMN8--67" value="lane_ok" style="rhombus;whiteSpace=wrap;html=1;" parent="1" vertex="1">
          <mxGeometry x="384" y="315" width="60" height="50" as="geometry" />
        </mxCell>
        <mxCell id="vLVgJYE80W-G5NcFMN8--72" value="No" style="text;html=1;strokeColor=none;fillColor=none;align=center;verticalAlign=middle;whiteSpace=wrap;rounded=0;" parent="1" vertex="1">
          <mxGeometry x="407.5" y="365" width="40" height="20" as="geometry" />
        </mxCell>
        <mxCell id="vLVgJYE80W-G5NcFMN8--74" value="Yes" style="text;html=1;strokeColor=none;fillColor=none;align=center;verticalAlign=middle;whiteSpace=wrap;rounded=0;" parent="1" vertex="1">
          <mxGeometry x="447.5" y="345" width="40" height="20" as="geometry" />
        </mxCell>
        <mxCell id="vLVgJYE80W-G5NcFMN8--84" value="Visual-Initial Odom" style="rounded=0;whiteSpace=wrap;html=1;" parent="1" vertex="1">
          <mxGeometry x="830" y="232.5" width="120" height="60" as="geometry" />
        </mxCell>
        <mxCell id="vLVgJYE80W-G5NcFMN8--86" value="Lidar-Initial Odom" style="rounded=0;whiteSpace=wrap;html=1;" parent="1" vertex="1">
          <mxGeometry x="990" y="232.5" width="120" height="60" as="geometry" />
        </mxCell>
      </root>
    </mxGraphModel>
  </diagram>
</mxfile>
